<svg width="100" height="219" viewBox="0 0 100 219" fill="none" xmlns="http://www.w3.org/2000/svg">
<g clip-path="url(#clip0_0_1)">
<path d="M90.9799 215.04C90.3694 216.261 89.1896 217.085 87.8303 217.21C82.2722 217.724 66.7741 219 50 219C33.3325 219 17.9249 217.74 12.2768 217.22C10.8597 217.09 9.64083 216.202 9.05682 214.904L5.5 207L3.26022 202.928C1.79402 200.262 3.72267 197 6.76508 197H93.5279C96.5014 197 98.4354 200.129 97.1056 202.789L90.9799 215.04Z" fill="#A5A5A5"/>
<path d="M9.07942 4.84116C9.65714 3.68573 10.7496 2.88223 12.0291 2.70398C17.4625 1.94701 33.0822 0 50 0C66.8147 0 82.3471 1.92335 87.8705 2.69001C89.2072 2.87555 90.3337 3.74161 90.8875 4.97228L94.5 13L96.7398 17.0723C98.206 19.7381 96.2773 23 93.2349 23H6.47213C3.49861 23 1.56462 19.8708 2.89443 17.2111L9.07942 4.84116Z" fill="#A5A5A5"/>
<path d="M0 17.7188C0 16.1759 1.15708 14.8871 2.69342 14.7455C10.5558 14.0212 33.9335 12 50 12C66.0665 12 89.4442 14.0212 97.3066 14.7455C98.8429 14.8871 100 16.1759 100 17.7187V202.283C100 203.825 98.8216 205.118 97.2868 205.266C60.499 208.821 38.8881 208.738 2.71469 205.264C1.17897 205.117 0 203.824 0 202.281V17.7188Z" fill="#C5C5C5"/>
<mask id="mask0_0_1" style="mask-type:alpha" maskUnits="userSpaceOnUse" x="0" y="12" width="100" height="196">
<path d="M0 17.7188C0 16.1759 1.15708 14.8871 2.69342 14.7455C10.5558 14.0212 33.9335 12 50 12C66.0665 12 89.4442 14.0212 97.3066 14.7455C98.8429 14.8871 100 16.1759 100 17.7187V202.283C100 203.825 98.8216 205.118 97.2868 205.266C60.499 208.821 38.8881 208.738 2.71469 205.264C1.17897 205.117 0 203.824 0 202.281V17.7188Z" fill="#D9D9D9"/>
</mask>
<g mask="url(#mask0_0_1)">
<path d="M50 141.667V110L75 78H100L50 141.667Z" fill="#00743E"/>
<path d="M50 141.667V173.333L25 207C4.20431 206.906 -1.29331 205.814 1.62423e-06 202L50 141.667Z" fill="#144536"/>
<path d="M50 173.333V141.667L100 78V110L50 173.333Z" fill="#6CA43C"/>
<path d="M50 208V173.333L75 141.667H100L50 208Z" fill="#00743E"/>
<path d="M50 78.3333V46.6667L77 13H88.5L100 15L50 78.3333Z" fill="#00743E"/>
<path d="M50 110V141.667L24 173.333H0L50 110Z" fill="#00743E"/>
<path d="M50 78.3333V110L0 173.3V141.667L50 78.3333Z" fill="#144536"/>
<path d="M50 46.6667V78.3333L25 110H0L50 46.6667Z" fill="#00743E"/>
<path d="M50 12V46.6667L0 110V78.3333L50 12Z" fill="#144536"/>
<path d="M50 110V78.3333L100 15V50L50 110Z" fill="#6CA43C"/>
</g>
<path d="M38.2202 77.9818V99.8H33.7457L25.0632 87.2077H24.9247V99.8H19.6513V77.9818H24.1896L32.7763 90.5528H32.9574V77.9818H38.2202ZM60.6291 88.8909C60.6291 91.2915 60.1674 93.3263 59.2441 94.9953C58.3208 96.6643 57.0708 97.9321 55.4941 98.7986C53.9245 99.6651 52.1632 100.098 50.2101 100.098C48.2498 100.098 46.4849 99.6615 44.9153 98.7879C43.3457 97.9143 42.0993 96.6466 41.176 94.9847C40.2598 93.3156 39.8017 91.2844 39.8017 88.8909C39.8017 86.4903 40.2598 84.4555 41.176 82.7865C42.0993 81.1175 43.3457 79.8497 44.9153 78.9832C46.4849 78.1168 48.2498 77.6835 50.2101 77.6835C52.1632 77.6835 53.9245 78.1168 55.4941 78.9832C57.0708 79.8497 58.3208 81.1175 59.2441 82.7865C60.1674 84.4555 60.6291 86.4903 60.6291 88.8909ZM55.2385 88.8909C55.2385 87.4705 55.036 86.2702 54.6312 85.2901C54.2335 84.3099 53.6582 83.5678 52.9054 83.0635C52.1596 82.5592 51.2612 82.3071 50.2101 82.3071C49.166 82.3071 48.2676 82.5592 47.5147 83.0635C46.7619 83.5678 46.1831 84.3099 45.7782 85.2901C45.3805 86.2702 45.1816 87.4705 45.1816 88.8909C45.1816 90.3114 45.3805 91.5116 45.7782 92.4918C46.1831 93.4719 46.7619 94.2141 47.5147 94.7183C48.2676 95.2226 49.166 95.4747 50.2101 95.4747C51.2612 95.4747 52.1596 95.2226 52.9054 94.7183C53.6582 94.2141 54.2335 93.4719 54.6312 92.4918C55.036 91.5116 55.2385 90.3114 55.2385 88.8909ZM80.7768 77.9818V99.8H76.3024L67.6199 87.2077H67.4814V99.8H62.2079V77.9818H66.7463L75.3329 90.5528H75.514V77.9818H80.7768ZM31.4446 112.523C31.3736 111.742 31.0575 111.135 30.4964 110.701C29.9425 110.261 29.1506 110.041 28.1207 110.041C27.4389 110.041 26.8707 110.13 26.4162 110.307C25.9616 110.485 25.6207 110.73 25.3935 111.042C25.1662 111.348 25.049 111.699 25.0419 112.097C25.0277 112.424 25.0916 112.711 25.2337 112.96C25.3828 113.208 25.5959 113.429 25.8729 113.62C26.157 113.805 26.4979 113.968 26.8956 114.11C27.2933 114.252 27.7408 114.377 28.2379 114.483L30.1129 114.909C31.1925 115.144 32.1442 115.456 32.968 115.847C33.799 116.237 34.495 116.703 35.0561 117.242C35.6243 117.782 36.054 118.404 36.3452 119.107C36.6364 119.81 36.7855 120.598 36.7926 121.472C36.7855 122.85 36.4375 124.032 35.7486 125.019C35.0597 126.007 34.0689 126.763 32.7763 127.289C31.4908 127.814 29.9389 128.077 28.1207 128.077C26.2955 128.077 24.7045 127.804 23.348 127.257C21.9915 126.71 20.9368 125.879 20.1839 124.764C19.4311 123.649 19.044 122.239 19.0227 120.534H24.0724C24.1151 121.237 24.3033 121.823 24.6371 122.292C24.9709 122.761 25.429 123.116 26.0114 123.358C26.6009 123.599 27.2827 123.72 28.0568 123.72C28.767 123.72 29.3707 123.624 29.8679 123.432C30.3722 123.24 30.7592 122.974 31.0291 122.633C31.299 122.292 31.4375 121.902 31.4446 121.461C31.4375 121.049 31.3097 120.698 31.0611 120.407C30.8125 120.108 30.429 119.853 29.9105 119.639C29.3991 119.419 28.7457 119.217 27.9503 119.032L25.6705 118.5C23.7812 118.066 22.2933 117.367 21.2067 116.401C20.12 115.428 19.5803 114.114 19.5874 112.459C19.5803 111.11 19.9425 109.927 20.674 108.912C21.4055 107.896 22.4176 107.104 23.7102 106.536C25.0028 105.968 26.4766 105.684 28.1314 105.684C29.8217 105.684 31.2884 105.971 32.5312 106.546C33.7812 107.115 34.7507 107.914 35.4396 108.943C36.1286 109.973 36.4801 111.166 36.4943 112.523H31.4446ZM37.2422 110.264V105.982H55.6832V110.264H49.0675V127.8H43.8686V110.264H37.2422ZM76.3556 116.891C76.3556 119.291 75.894 121.326 74.9707 122.995C74.0474 124.664 72.7974 125.932 71.2207 126.799C69.6511 127.665 67.8897 128.098 65.9366 128.098C63.9764 128.098 62.2115 127.662 60.6419 126.788C59.0723 125.914 57.8258 124.647 56.9025 122.985C55.9863 121.316 55.5282 119.284 55.5282 116.891C55.5282 114.49 55.9863 112.456 56.9025 110.787C57.8258 109.117 59.0723 107.85 60.6419 106.983C62.2115 106.117 63.9764 105.684 65.9366 105.684C67.8897 105.684 69.6511 106.117 71.2207 106.983C72.7974 107.85 74.0474 109.117 74.9707 110.787C75.894 112.456 76.3556 114.49 76.3556 116.891ZM70.965 116.891C70.965 115.47 70.7626 114.27 70.3578 113.29C69.96 112.31 69.3848 111.568 68.6319 111.063C67.8862 110.559 66.9877 110.307 65.9366 110.307C64.8926 110.307 63.9941 110.559 63.2413 111.063C62.4885 111.568 61.9096 112.31 61.5048 113.29C61.1071 114.27 60.9082 115.47 60.9082 116.891C60.9082 118.311 61.1071 119.512 61.5048 120.492C61.9096 121.472 62.4885 122.214 63.2413 122.718C63.9941 123.223 64.8926 123.475 65.9366 123.475C66.9877 123.475 67.8862 123.223 68.6319 122.718C69.3848 122.214 69.96 121.472 70.3578 120.492C70.7626 119.512 70.965 118.311 70.965 116.891ZM77.9345 127.8V105.982H86.9473C88.5808 105.982 89.9906 106.301 91.1767 106.941C92.3699 107.573 93.2896 108.457 93.9359 109.593C94.5822 110.723 94.9054 112.037 94.9054 113.535C94.9054 115.041 94.5751 116.358 93.9146 117.487C93.2612 118.61 92.3272 119.48 91.1127 120.098C89.8983 120.715 88.4565 121.024 86.7875 121.024H81.2264V116.87H85.8074C86.6028 116.87 87.2669 116.731 87.7995 116.454C88.3393 116.177 88.7477 115.79 89.0247 115.293C89.3017 114.789 89.4402 114.203 89.4402 113.535C89.4402 112.86 89.3017 112.278 89.0247 111.788C88.7477 111.291 88.3393 110.907 87.7995 110.637C87.2598 110.367 86.5957 110.233 85.8074 110.233H83.2079V127.8H77.9345Z" fill="white"/>
<path fill-rule="evenodd" clip-rule="evenodd" d="M90 84C93.3137 84 96 81.3137 96 78C96 74.6863 93.3137 72 90 72C86.6863 72 84 74.6863 84 78C84 81.3137 86.6863 84 90 84ZM90 83C92.7614 83 95 80.7614 95 78C95 75.2386 92.7614 73 90 73C87.2386 73 85 75.2386 85 78C85 80.7614 87.2386 83 90 83Z" fill="white"/>
<path d="M93.3116 73.9884L85.7943 81.5057L86.5014 82.2128L94.0187 74.6955L93.3116 73.9884Z" fill="white"/>
<path d="M94.2244 81.5173L86.7071 74L86 74.7071L93.5173 82.2244L94.2244 81.5173Z" fill="white"/>
<path d="M23.4972 138.091H24.8182V145.889C24.8182 146.585 24.6903 147.176 24.4347 147.663C24.179 148.15 23.8185 148.519 23.3533 148.771C22.8881 149.023 22.3395 149.149 21.7074 149.149C21.1108 149.149 20.5799 149.041 20.1147 148.824C19.6495 148.604 19.2837 148.292 19.0174 147.887C18.7511 147.482 18.6179 147.001 18.6179 146.443H19.9176C19.9176 146.752 19.994 147.022 20.1467 147.253C20.3029 147.48 20.516 147.658 20.7859 147.786C21.0558 147.913 21.3629 147.977 21.7074 147.977C22.0874 147.977 22.4105 147.897 22.6768 147.738C22.9432 147.578 23.1456 147.343 23.2841 147.034C23.4261 146.722 23.4972 146.34 23.4972 145.889V138.091ZM34.6246 138.091H35.9457V145.314C35.9457 146.06 35.7699 146.725 35.4183 147.311C35.0703 147.894 34.5785 148.354 33.9428 148.691C33.3072 149.025 32.5614 149.192 31.7056 149.192C30.8498 149.192 30.104 149.025 29.4684 148.691C28.8327 148.354 28.3391 147.894 27.9876 147.311C27.6396 146.725 27.4656 146.06 27.4656 145.314V138.091H28.7866V145.207C28.7866 145.74 28.9038 146.214 29.1381 146.63C29.3725 147.042 29.7063 147.366 30.1396 147.604C30.5763 147.839 31.0984 147.956 31.7056 147.956C32.3129 147.956 32.8349 147.839 33.2717 147.604C33.7085 147.366 34.0423 147.042 34.2731 146.63C34.5075 146.214 34.6246 145.74 34.6246 145.207V138.091ZM47.2343 138.091V149H45.9559L40.0113 140.435H39.9047V149H38.5837V138.091H39.8621L45.828 146.678H45.9346V138.091H47.2343ZM57.3351 141.5C57.2179 141.141 57.0634 140.82 56.8716 140.536C56.6834 140.248 56.4579 140.003 56.1951 139.801C55.9359 139.598 55.6412 139.444 55.3109 139.337C54.9806 139.231 54.6184 139.178 54.2243 139.178C53.5779 139.178 52.9902 139.344 52.4611 139.678C51.932 140.012 51.5112 140.504 51.1987 141.154C50.8862 141.804 50.7299 142.601 50.7299 143.545C50.7299 144.49 50.888 145.287 51.204 145.937C51.5201 146.587 51.948 147.079 52.4877 147.413C53.0275 147.746 53.6348 147.913 54.3095 147.913C54.9345 147.913 55.4849 147.78 55.9608 147.514C56.4402 147.244 56.813 146.864 57.0794 146.374C57.3493 145.88 57.4842 145.3 57.4842 144.632L57.889 144.717H54.6078V143.545H58.7626V144.717C58.7626 145.616 58.5708 146.397 58.1873 147.061C57.8074 147.725 57.2818 148.24 56.6106 148.606C55.943 148.968 55.176 149.149 54.3095 149.149C53.3436 149.149 52.4949 148.922 51.7633 148.467C51.0353 148.013 50.4672 147.366 50.0588 146.528C49.6539 145.69 49.4515 144.696 49.4515 143.545C49.4515 142.683 49.5669 141.907 49.7978 141.218C50.0321 140.525 50.3624 139.936 50.7885 139.449C51.2147 138.963 51.7189 138.59 52.3013 138.331C52.8837 138.071 53.5247 137.942 54.2243 137.942C54.7995 137.942 55.3358 138.029 55.8329 138.203C56.3336 138.373 56.7793 138.616 57.1699 138.933C57.5641 139.245 57.8926 139.62 58.1554 140.056C58.4181 140.49 58.5993 140.971 58.6987 141.5H57.3351ZM61.0251 149V138.091H62.3461V147.828H67.4172V149H61.0251ZM69.4626 149V138.091H76.0464V139.263H70.7836V142.949H75.7055V144.121H70.7836V147.828H76.1317V149H69.4626Z" fill="white"/>
</g>
<defs>
<clipPath id="clip0_0_1">
<rect width="100" height="219" fill="white"/>
</clipPath>
</defs>
</svg>
