<svg width="100" height="219" viewBox="0 0 100 219" fill="none" xmlns="http://www.w3.org/2000/svg">
<g clip-path="url(#clip0_0_1)">
<mask id="mask0_0_1" style="mask-type:luminance" maskUnits="userSpaceOnUse" x="0" y="0" width="100" height="219">
<path d="M100 0H0V219H100V0Z" fill="white"/>
</mask>
<g mask="url(#mask0_0_1)">
<path d="M90.9799 215.04C90.3694 216.261 89.1896 217.085 87.8303 217.21C82.2722 217.724 66.7741 219 50 219C33.3325 219 17.9249 217.74 12.2768 217.22C10.8597 217.09 9.64085 216.202 9.05684 214.904L5.50002 207L3.26024 202.928C1.79404 200.262 3.72269 197 6.7651 197H93.5279C96.5014 197 98.4354 200.129 97.1056 202.789L90.9799 215.04Z" fill="#A5A5A5"/>
<path d="M9.07943 4.84116C9.65715 3.68573 10.7496 2.88223 12.0291 2.70398C17.4625 1.94701 33.0822 0 50 0C66.8147 0 82.3471 1.92335 87.8705 2.69001C89.2072 2.87555 90.3337 3.74161 90.8875 4.97228L94.5 13L96.7398 17.0723C98.206 19.7381 96.2773 23 93.2349 23H6.47214C3.49862 23 1.56463 19.8708 2.89444 17.2111L9.07943 4.84116Z" fill="#A5A5A5"/>
<path d="M0 17.7188C0 16.1759 1.15708 14.8871 2.69342 14.7455C10.5558 14.0212 33.9335 12 50 12C66.0665 12 89.4442 14.0212 97.3066 14.7455C98.8429 14.8871 100 16.1759 100 17.7187V202.283C100 203.825 98.8216 205.118 97.2868 205.266C60.499 208.821 38.8881 208.738 2.71469 205.264C1.17897 205.117 0 203.824 0 202.281V17.7188Z" fill="#C5C5C5"/>
<mask id="mask1_0_1" style="mask-type:alpha" maskUnits="userSpaceOnUse" x="0" y="12" width="100" height="196">
<path d="M0 17.7188C0 16.1759 1.15708 14.8871 2.69342 14.7455C10.5558 14.0212 33.9335 12 50 12C66.0665 12 89.4442 14.0212 97.3066 14.7455C98.8429 14.8871 100 16.1759 100 17.7187V202.283C100 203.825 98.8216 205.118 97.2868 205.266C60.499 208.821 38.8881 208.738 2.71469 205.264C1.17897 205.117 0 203.824 0 202.281V17.7188Z" fill="#D9D9D9"/>
</mask>
<g mask="url(#mask1_0_1)">
<path d="M50 141.667V110L75 78H100L50 141.667Z" fill="#C71914"/>
<path d="M50 141.667V173.333L25 207C4.2043 206.906 -1.29332 205.814 -5.30481e-06 202L50 141.667Z" fill="#8E0719"/>
<path d="M50 173.333V141.667L100 78V110L50 173.333Z" fill="#D89A3C"/>
<path d="M50 208V173.333L75 141.667H100L50 208Z" fill="#C71914"/>
<path d="M50 78.3333V46.6667L77 13H88.5L100 15L50 78.3333Z" fill="#C71914"/>
<path d="M50 110V141.667L24 173.333H0L50 110Z" fill="#C71914"/>
<path d="M50 78.3333V110L0 173.3V141.667L50 78.3333Z" fill="#8E0719"/>
<path d="M50 46.6667V78.3333L25 110H0L50 46.6667Z" fill="#C71914"/>
<path d="M50 12V46.6667L0 110V78.3333L50 12Z" fill="#8E0719"/>
<path d="M50 110V78.3333L100 15V50L50 110Z" fill="#D89A3C"/>
</g>
<path d="M38.2202 77.9818V99.8H33.7457L25.0632 87.2077H24.9247V99.8H19.6513V77.9818H24.1896L32.7763 90.5528H32.9574V77.9818H38.2202ZM60.6291 88.8909C60.6291 91.2915 60.1674 93.3263 59.2441 94.9953C58.3208 96.6643 57.0708 97.9321 55.4941 98.7986C53.9245 99.6651 52.1632 100.098 50.2101 100.098C48.2498 100.098 46.4849 99.6615 44.9153 98.7879C43.3457 97.9143 42.0993 96.6466 41.176 94.9847C40.2598 93.3156 39.8017 91.2844 39.8017 88.8909C39.8017 86.4903 40.2598 84.4555 41.176 82.7865C42.0993 81.1175 43.3457 79.8497 44.9153 78.9832C46.4849 78.1168 48.2498 77.6835 50.2101 77.6835C52.1632 77.6835 53.9245 78.1168 55.4941 78.9832C57.0708 79.8497 58.3208 81.1175 59.2441 82.7865C60.1674 84.4555 60.6291 86.4903 60.6291 88.8909ZM55.2385 88.8909C55.2385 87.4705 55.036 86.2702 54.6312 85.2901C54.2335 84.3099 53.6582 83.5678 52.9054 83.0635C52.1596 82.5592 51.2612 82.3071 50.2101 82.3071C49.166 82.3071 48.2676 82.5592 47.5147 83.0635C46.7619 83.5678 46.1831 84.3099 45.7782 85.2901C45.3805 86.2702 45.1816 87.4705 45.1816 88.8909C45.1816 90.3114 45.3805 91.5116 45.7782 92.4918C46.1831 93.4719 46.7619 94.2141 47.5147 94.7183C48.2676 95.2226 49.166 95.4747 50.2101 95.4747C51.2612 95.4747 52.1596 95.2226 52.9054 94.7183C53.6582 94.2141 54.2335 93.4719 54.6312 92.4918C55.036 91.5116 55.2385 90.3114 55.2385 88.8909ZM80.7768 77.9818V99.8H76.3024L67.6199 87.2077H67.4814V99.8H62.2079V77.9818H66.7463L75.3329 90.5528H75.514V77.9818H80.7768ZM31.4446 112.523C31.3736 111.742 31.0575 111.135 30.4964 110.701C29.9425 110.261 29.1506 110.041 28.1207 110.041C27.4389 110.041 26.8707 110.13 26.4162 110.307C25.9616 110.485 25.6207 110.73 25.3935 111.042C25.1662 111.348 25.049 111.699 25.0419 112.097C25.0277 112.424 25.0916 112.711 25.2337 112.96C25.3828 113.208 25.5959 113.429 25.8729 113.62C26.157 113.805 26.4979 113.968 26.8956 114.11C27.2933 114.252 27.7408 114.377 28.2379 114.483L30.1129 114.909C31.1925 115.144 32.1442 115.456 32.968 115.847C33.799 116.237 34.495 116.703 35.0561 117.242C35.6243 117.782 36.054 118.404 36.3452 119.107C36.6364 119.81 36.7855 120.598 36.7926 121.472C36.7855 122.85 36.4375 124.032 35.7486 125.019C35.0597 126.007 34.0689 126.763 32.7763 127.289C31.4908 127.814 29.9389 128.077 28.1207 128.077C26.2955 128.077 24.7045 127.804 23.348 127.257C21.9915 126.71 20.9368 125.879 20.1839 124.764C19.4311 123.649 19.044 122.239 19.0227 120.534H24.0724C24.1151 121.237 24.3033 121.823 24.6371 122.292C24.9709 122.761 25.429 123.116 26.0114 123.358C26.6009 123.599 27.2827 123.72 28.0568 123.72C28.767 123.72 29.3707 123.624 29.8679 123.432C30.3722 123.24 30.7592 122.974 31.0291 122.633C31.299 122.292 31.4375 121.902 31.4446 121.461C31.4375 121.049 31.3097 120.698 31.0611 120.407C30.8125 120.108 30.429 119.853 29.9105 119.639C29.3991 119.419 28.7457 119.217 27.9503 119.032L25.6705 118.5C23.7812 118.066 22.2933 117.367 21.2067 116.401C20.12 115.428 19.5803 114.114 19.5874 112.459C19.5803 111.11 19.9425 109.927 20.674 108.912C21.4055 107.896 22.4176 107.104 23.7102 106.536C25.0028 105.968 26.4766 105.684 28.1314 105.684C29.8217 105.684 31.2884 105.971 32.5312 106.546C33.7812 107.115 34.7507 107.914 35.4396 108.943C36.1286 109.973 36.4801 111.166 36.4943 112.523H31.4446ZM37.2422 110.264V105.982H55.6832V110.264H49.0675V127.8H43.8686V110.264H37.2422ZM76.3556 116.891C76.3556 119.291 75.894 121.326 74.9707 122.995C74.0474 124.664 72.7974 125.932 71.2207 126.799C69.6511 127.665 67.8897 128.098 65.9366 128.098C63.9764 128.098 62.2115 127.662 60.6419 126.788C59.0723 125.914 57.8258 124.647 56.9025 122.985C55.9863 121.316 55.5282 119.284 55.5282 116.891C55.5282 114.49 55.9863 112.456 56.9025 110.787C57.8258 109.117 59.0723 107.85 60.6419 106.983C62.2115 106.117 63.9764 105.684 65.9366 105.684C67.8897 105.684 69.6511 106.117 71.2207 106.983C72.7974 107.85 74.0474 109.117 74.9707 110.787C75.894 112.456 76.3556 114.49 76.3556 116.891ZM70.965 116.891C70.965 115.47 70.7626 114.27 70.3578 113.29C69.96 112.31 69.3848 111.568 68.6319 111.063C67.8862 110.559 66.9877 110.307 65.9366 110.307C64.8926 110.307 63.9941 110.559 63.2413 111.063C62.4885 111.568 61.9096 112.31 61.5048 113.29C61.1071 114.27 60.9082 115.47 60.9082 116.891C60.9082 118.311 61.1071 119.512 61.5048 120.492C61.9096 121.472 62.4885 122.214 63.2413 122.718C63.9941 123.223 64.8926 123.475 65.9366 123.475C66.9877 123.475 67.8862 123.223 68.6319 122.718C69.3848 122.214 69.96 121.472 70.3578 120.492C70.7626 119.512 70.965 118.311 70.965 116.891ZM77.9345 127.8V105.982H86.9473C88.5808 105.982 89.9906 106.301 91.1767 106.941C92.3699 107.573 93.2896 108.457 93.9359 109.593C94.5822 110.723 94.9054 112.037 94.9054 113.535C94.9054 115.041 94.5751 116.358 93.9146 117.487C93.2612 118.61 92.3272 119.48 91.1127 120.098C89.8983 120.715 88.4565 121.024 86.7875 121.024H81.2264V116.87H85.8074C86.6028 116.87 87.2669 116.731 87.7995 116.454C88.3393 116.177 88.7477 115.79 89.0247 115.293C89.3017 114.789 89.4402 114.203 89.4402 113.535C89.4402 112.86 89.3017 112.278 89.0247 111.788C88.7477 111.291 88.3393 110.907 87.7995 110.637C87.2598 110.367 86.5957 110.233 85.8074 110.233H83.2079V127.8H77.9345Z" fill="white"/>
<path fill-rule="evenodd" clip-rule="evenodd" d="M90 84C93.3137 84 96 81.3137 96 78C96 74.6863 93.3137 72 90 72C86.6863 72 84 74.6863 84 78C84 81.3137 86.6863 84 90 84ZM90 83C92.7614 83 95 80.7614 95 78C95 75.2386 92.7614 73 90 73C87.2386 73 85 75.2386 85 78C85 80.7614 87.2386 83 90 83Z" fill="white"/>
<path d="M93.3116 73.9884L85.7943 81.5057L86.5014 82.2128L94.0187 74.6955L93.3116 73.9884Z" fill="white"/>
<path d="M94.2244 81.5173L86.7071 74L86 74.7071L93.5173 82.2244L94.2244 81.5173Z" fill="white"/>
<path d="M27.4801 138.091H28.8011V145.314C28.8011 146.06 28.6254 146.725 28.2738 147.311C27.9258 147.894 27.4339 148.354 26.7983 148.691C26.1626 149.025 25.4169 149.192 24.5611 149.192C23.7053 149.192 22.9595 149.025 22.3239 148.691C21.6882 148.354 21.1946 147.894 20.843 147.311C20.495 146.725 20.321 146.06 20.321 145.314V138.091H21.642V145.207C21.642 145.74 21.7592 146.214 21.9936 146.63C22.228 147.042 22.5618 147.366 22.995 147.604C23.4318 147.839 23.9538 147.956 24.5611 147.956C25.1683 147.956 25.6903 147.839 26.1271 147.604C26.5639 147.366 26.8977 147.042 27.1286 146.63C27.3629 146.214 27.4801 145.74 27.4801 145.207V138.091ZM31.4392 149V138.091H32.7602V147.828H37.8312V149H31.4392ZM37.8299 139.263V138.091H46.0117V139.263H42.5813V149H41.2603V139.263H37.8299ZM48.0505 149V138.091H51.7366C52.5889 138.091 53.2884 138.237 53.8353 138.528C54.3822 138.815 54.787 139.211 55.0498 139.716C55.3126 140.22 55.444 140.793 55.444 141.436C55.444 142.079 55.3126 142.649 55.0498 143.146C54.787 143.643 54.384 144.034 53.8406 144.318C53.2973 144.598 52.6031 144.739 51.7579 144.739H48.7749V143.545H51.7153C52.2977 143.545 52.7664 143.46 53.1215 143.29C53.4802 143.119 53.7394 142.878 53.8992 142.565C54.0626 142.249 54.1443 141.873 54.1443 141.436C54.1443 140.999 54.0626 140.618 53.8992 140.291C53.7359 139.964 53.4749 139.712 53.1162 139.534C52.7575 139.353 52.2835 139.263 51.694 139.263H49.3715V149H48.0505ZM53.1855 144.099L55.8701 149H54.336L51.694 144.099H53.1855ZM58.0927 149H56.7077L60.7134 138.091H62.0771L66.0827 149H64.6978L61.4379 139.817H61.3526L58.0927 149ZM58.604 144.739H64.1864V145.911H58.604V144.739Z" fill="white"/>
</g>
</g>
<defs>
<clipPath id="clip0_0_1">
<rect width="100" height="219" fill="white"/>
</clipPath>
</defs>
</svg>
