<svg width="404" height="404" viewBox="0 0 404 404" fill="none" xmlns="http://www.w3.org/2000/svg">
<rect width="404" height="404"/>
<path d="M2 402H102L202 302V202L2 402Z" fill="#5B6EE1" stroke="black"/>
<path d="M402 102H302L202 202V302L402 102Z" fill="#5FCDE4" stroke="black"/>
<path d="M402 202H302L202 302V402L402 202Z" fill="#639BFF" stroke="black"/>
<path d="M402 2H302L202 102V202L402 2Z" fill="#639BFF" stroke="black"/>
<path d="M2 302H102L202 202V102L2 302Z" fill="#639BFF" stroke="black"/>
<path d="M2 202H102L202 102V2L2 202Z" fill="#5B6EE1" stroke="black"/>
<path d="M144.773 156.617C144.086 149.685 141.135 144.299 135.922 140.461C130.708 136.622 123.633 134.703 114.695 134.703C108.622 134.703 103.495 135.562 99.3125 137.281C95.1302 138.943 91.9219 141.263 89.6875 144.242C87.5104 147.221 86.4219 150.602 86.4219 154.383C86.3073 157.534 86.9661 160.284 88.3984 162.633C89.888 164.982 91.9219 167.016 94.5 168.734C97.0781 170.396 100.057 171.857 103.437 173.117C106.818 174.32 110.427 175.352 114.266 176.211L130.078 179.992C137.755 181.711 144.802 184.003 151.219 186.867C157.635 189.732 163.193 193.255 167.891 197.437C172.589 201.62 176.227 206.547 178.805 212.219C181.44 217.891 182.786 224.393 182.844 231.727C182.786 242.497 180.036 251.836 174.594 259.742C169.208 267.591 161.417 273.693 151.219 278.047C141.078 282.344 128.846 284.492 114.523 284.492C100.315 284.492 87.9401 282.315 77.3984 277.961C66.9141 273.607 58.7214 267.161 52.8203 258.625C46.9766 250.031 43.9115 239.404 43.625 226.742H79.6328C80.0339 232.643 81.724 237.57 84.7031 241.523C87.7396 245.419 91.7786 248.37 96.8203 250.375C101.919 252.323 107.677 253.297 114.094 253.297C120.396 253.297 125.867 252.38 130.508 250.547C135.206 248.714 138.844 246.164 141.422 242.898C144 239.633 145.289 235.88 145.289 231.641C145.289 227.687 144.115 224.365 141.766 221.672C139.474 218.979 136.094 216.687 131.625 214.797C127.214 212.906 121.799 211.187 115.383 209.641L96.2188 204.828C81.3802 201.219 69.6641 195.576 61.0703 187.898C52.4766 180.221 48.2083 169.88 48.2656 156.875C48.2083 146.219 51.0443 136.909 56.7734 128.945C62.5599 120.982 70.4948 114.766 80.5781 110.297C90.6615 105.828 102.12 103.594 114.953 103.594C128.016 103.594 139.417 105.828 149.156 110.297C158.953 114.766 166.573 120.982 172.016 128.945C177.458 136.909 180.266 146.133 180.437 156.617H144.773ZM355.084 106V282H322.943L246.373 171.227H245.084V282H207.873V106H240.529L316.498 216.687H318.045V106H355.084Z" fill="white"/>
</svg>
