<svg width="100" height="219" viewBox="0 0 100 219" fill="none" xmlns="http://www.w3.org/2000/svg">
<path d="M90.9799 215.04C90.3694 216.261 89.1896 217.085 87.8303 217.21C82.2722 217.724 66.7741 219 50 219C33.3325 219 17.9249 217.74 12.2768 217.22C10.8597 217.09 9.64083 216.202 9.05682 214.904L5.5 207L3.26022 202.928C1.79402 200.262 3.72267 197 6.76508 197H93.5279C96.5014 197 98.4354 200.129 97.1056 202.789L90.9799 215.04Z" fill="#A5A5A5"/>
<path d="M9.07942 4.84116C9.65714 3.68573 10.7496 2.88223 12.0291 2.70398C17.4625 1.94701 33.0822 0 50 0C66.8147 0 82.3471 1.92335 87.8705 2.69001C89.2072 2.87555 90.3337 3.74161 90.8875 4.97228L94.5 13L96.7398 17.0723C98.206 19.7381 96.2773 23 93.2349 23H6.47213C3.49861 23 1.56462 19.8708 2.89443 17.2111L9.07942 4.84116Z" fill="#A5A5A5"/>
<path d="M0 17.7188C0 16.1759 1.15708 14.8871 2.69342 14.7455C10.5558 14.0212 33.9335 12 50 12C66.0665 12 89.4442 14.0212 97.3066 14.7455C98.8429 14.8871 100 16.1759 100 17.7187V202.283C100 203.825 98.8216 205.118 97.2868 205.266C60.499 208.821 38.8881 208.738 2.71469 205.264C1.17897 205.117 0 203.824 0 202.281V17.7188Z" fill="#C5C5C5"/>
<mask id="mask0_0_1" style="mask-type:alpha" maskUnits="userSpaceOnUse" x="0" y="12" width="100" height="196">
<path d="M0 17.7188C0 16.1759 1.15708 14.8871 2.69342 14.7455C10.5558 14.0212 33.9335 12 50 12C66.0665 12 89.4442 14.0212 97.3066 14.7455C98.8429 14.8871 100 16.1759 100 17.7187V202.283C100 203.825 98.8216 205.118 97.2868 205.266C60.499 208.821 38.8881 208.738 2.71469 205.264C1.17897 205.117 0 203.824 0 202.281V17.7188Z" fill="#D9D9D9"/>
</mask>
<g mask="url(#mask0_0_1)">
<path d="M50 141.667V110L75 78H100L50 141.667Z" fill="#00689C"/>
<path d="M50 141.667V173.333L25 207C4.20431 206.906 -1.29331 205.814 -1.2964e-06 202L50 141.667Z" fill="#20326C"/>
<path d="M50 173.333V141.667L100 78V110L50 173.333Z" fill="#15A8BA"/>
<path d="M50 208V173.333L75 141.667H100L50 208Z" fill="#00689C"/>
<path d="M50 78.3333V46.6667L77 13H88.5L100 15L50 78.3333Z" fill="#00689C"/>
<path d="M50 110V141.667L24 173.333H-1.2964e-06L50 110Z" fill="#00689C"/>
<path d="M50 78.3333V110L-1.2964e-06 173.3V141.667L50 78.3333Z" fill="#20326C"/>
<path d="M50 46.6667V78.3333L25 110H-1.2964e-06L50 46.6667Z" fill="#00689C"/>
<path d="M50 12V46.6667L-1.2964e-06 110V78.3333L50 12Z" fill="#20326C"/>
<path d="M50 110V78.3333L100 15V50L50 110Z" fill="#15A8BA"/>
</g>
<path d="M38.2202 77.9818V99.8H33.7457L25.0632 87.2077H24.9247V99.8H19.6513V77.9818H24.1896L32.7763 90.5528H32.9574V77.9818H38.2202ZM60.6291 88.8909C60.6291 91.2915 60.1674 93.3263 59.2441 94.9953C58.3208 96.6643 57.0708 97.9321 55.4941 98.7986C53.9245 99.6651 52.1632 100.098 50.2101 100.098C48.2498 100.098 46.4849 99.6615 44.9153 98.7879C43.3457 97.9143 42.0993 96.6466 41.176 94.9847C40.2598 93.3156 39.8017 91.2844 39.8017 88.8909C39.8017 86.4903 40.2598 84.4555 41.176 82.7865C42.0993 81.1175 43.3457 79.8497 44.9153 78.9832C46.4849 78.1168 48.2498 77.6835 50.2101 77.6835C52.1632 77.6835 53.9245 78.1168 55.4941 78.9832C57.0708 79.8497 58.3208 81.1175 59.2441 82.7865C60.1674 84.4555 60.6291 86.4903 60.6291 88.8909ZM55.2385 88.8909C55.2385 87.4705 55.036 86.2702 54.6312 85.2901C54.2335 84.3099 53.6582 83.5678 52.9054 83.0635C52.1596 82.5592 51.2612 82.3071 50.2101 82.3071C49.166 82.3071 48.2676 82.5592 47.5147 83.0635C46.7619 83.5678 46.1831 84.3099 45.7782 85.2901C45.3805 86.2702 45.1816 87.4705 45.1816 88.8909C45.1816 90.3114 45.3805 91.5116 45.7782 92.4918C46.1831 93.4719 46.7619 94.2141 47.5147 94.7183C48.2676 95.2226 49.166 95.4747 50.2101 95.4747C51.2612 95.4747 52.1596 95.2226 52.9054 94.7183C53.6582 94.2141 54.2335 93.4719 54.6312 92.4918C55.036 91.5116 55.2385 90.3114 55.2385 88.8909ZM80.7768 77.9818V99.8H76.3024L67.6199 87.2077H67.4814V99.8H62.2079V77.9818H66.7463L75.3329 90.5528H75.514V77.9818H80.7768ZM31.4446 112.523C31.3736 111.742 31.0575 111.135 30.4964 110.701C29.9425 110.261 29.1506 110.041 28.1207 110.041C27.4389 110.041 26.8707 110.13 26.4162 110.307C25.9616 110.485 25.6207 110.73 25.3935 111.042C25.1662 111.348 25.049 111.699 25.0419 112.097C25.0277 112.424 25.0916 112.711 25.2337 112.96C25.3828 113.208 25.5959 113.429 25.8729 113.62C26.157 113.805 26.4979 113.968 26.8956 114.11C27.2933 114.252 27.7408 114.377 28.2379 114.483L30.1129 114.909C31.1925 115.144 32.1442 115.456 32.968 115.847C33.799 116.237 34.495 116.703 35.0561 117.242C35.6243 117.782 36.054 118.404 36.3452 119.107C36.6364 119.81 36.7855 120.598 36.7926 121.472C36.7855 122.85 36.4375 124.032 35.7486 125.019C35.0597 126.007 34.0689 126.763 32.7763 127.289C31.4908 127.814 29.9389 128.077 28.1207 128.077C26.2955 128.077 24.7045 127.804 23.348 127.257C21.9915 126.71 20.9368 125.879 20.1839 124.764C19.4311 123.649 19.044 122.239 19.0227 120.534H24.0724C24.1151 121.237 24.3033 121.823 24.6371 122.292C24.9709 122.761 25.429 123.116 26.0114 123.358C26.6009 123.599 27.2827 123.72 28.0568 123.72C28.767 123.72 29.3707 123.624 29.8679 123.432C30.3722 123.24 30.7592 122.974 31.0291 122.633C31.299 122.292 31.4375 121.902 31.4446 121.461C31.4375 121.049 31.3097 120.698 31.0611 120.407C30.8125 120.108 30.429 119.853 29.9105 119.639C29.3991 119.419 28.7457 119.217 27.9503 119.032L25.6705 118.5C23.7812 118.066 22.2933 117.367 21.2067 116.401C20.12 115.428 19.5803 114.114 19.5874 112.459C19.5803 111.11 19.9425 109.927 20.674 108.912C21.4055 107.896 22.4176 107.104 23.7102 106.536C25.0028 105.968 26.4766 105.684 28.1314 105.684C29.8217 105.684 31.2884 105.971 32.5312 106.546C33.7812 107.115 34.7507 107.914 35.4396 108.943C36.1286 109.973 36.4801 111.166 36.4943 112.523H31.4446ZM37.2422 110.264V105.982H55.6832V110.264H49.0675V127.8H43.8686V110.264H37.2422ZM76.3556 116.891C76.3556 119.291 75.894 121.326 74.9707 122.995C74.0474 124.664 72.7974 125.932 71.2207 126.799C69.6511 127.665 67.8897 128.098 65.9366 128.098C63.9764 128.098 62.2115 127.662 60.6419 126.788C59.0723 125.914 57.8258 124.647 56.9025 122.985C55.9863 121.316 55.5282 119.284 55.5282 116.891C55.5282 114.49 55.9863 112.456 56.9025 110.787C57.8258 109.117 59.0723 107.85 60.6419 106.983C62.2115 106.117 63.9764 105.684 65.9366 105.684C67.8897 105.684 69.6511 106.117 71.2207 106.983C72.7974 107.85 74.0474 109.117 74.9707 110.787C75.894 112.456 76.3556 114.49 76.3556 116.891ZM70.965 116.891C70.965 115.47 70.7626 114.27 70.3578 113.29C69.96 112.31 69.3848 111.568 68.6319 111.063C67.8862 110.559 66.9877 110.307 65.9366 110.307C64.8926 110.307 63.9941 110.559 63.2413 111.063C62.4885 111.568 61.9096 112.31 61.5048 113.29C61.1071 114.27 60.9082 115.47 60.9082 116.891C60.9082 118.311 61.1071 119.512 61.5048 120.492C61.9096 121.472 62.4885 122.214 63.2413 122.718C63.9941 123.223 64.8926 123.475 65.9366 123.475C66.9877 123.475 67.8862 123.223 68.6319 122.718C69.3848 122.214 69.96 121.472 70.3578 120.492C70.7626 119.512 70.965 118.311 70.965 116.891ZM77.9345 127.8V105.982H86.9473C88.5808 105.982 89.9906 106.301 91.1767 106.941C92.3699 107.573 93.2896 108.457 93.9359 109.593C94.5822 110.723 94.9054 112.037 94.9054 113.535C94.9054 115.041 94.5751 116.358 93.9146 117.487C93.2612 118.61 92.3272 119.48 91.1127 120.098C89.8983 120.715 88.4565 121.024 86.7875 121.024H81.2264V116.87H85.8074C86.6028 116.87 87.2669 116.731 87.7995 116.454C88.3393 116.177 88.7477 115.79 89.0247 115.293C89.3017 114.789 89.4402 114.203 89.4402 113.535C89.4402 112.86 89.3017 112.278 89.0247 111.788C88.7477 111.291 88.3393 110.907 87.7995 110.637C87.2598 110.367 86.5957 110.233 85.8074 110.233H83.2079V127.8H77.9345Z" fill="white"/>
<path d="M11 135H89V152H11V135Z" fill="#BD1312"/>
<path d="M24.5256 143.545C24.5256 144.696 24.3178 145.69 23.9023 146.528C23.4869 147.366 22.9169 148.013 22.1925 148.467C21.468 148.922 20.6406 149.149 19.7102 149.149C18.7798 149.149 17.9524 148.922 17.228 148.467C16.5036 148.013 15.9336 147.366 15.5181 146.528C15.1026 145.69 14.8949 144.696 14.8949 143.545C14.8949 142.395 15.1026 141.401 15.5181 140.562C15.9336 139.724 16.5036 139.078 17.228 138.624C17.9524 138.169 18.7798 137.942 19.7102 137.942C20.6406 137.942 21.468 138.169 22.1925 138.624C22.9169 139.078 23.4869 139.724 23.9023 140.562C24.3178 141.401 24.5256 142.395 24.5256 143.545ZM23.2472 143.545C23.2472 142.601 23.0891 141.804 22.7731 141.154C22.4606 140.504 22.0362 140.012 21.5 139.678C20.9673 139.344 20.3707 139.178 19.7102 139.178C19.0497 139.178 18.4513 139.344 17.9151 139.678C17.3825 140.012 16.9581 140.504 16.642 141.154C16.3295 141.804 16.1733 142.601 16.1733 143.545C16.1733 144.49 16.3295 145.287 16.642 145.937C16.9581 146.587 17.3825 147.079 17.9151 147.413C18.4513 147.746 19.0497 147.913 19.7102 147.913C20.3707 147.913 20.9673 147.746 21.5 147.413C22.0362 147.079 22.4606 146.587 22.7731 145.937C23.0891 145.287 23.2472 144.49 23.2472 143.545ZM26.7468 149V138.091H30.4329C31.2852 138.091 31.9847 138.237 32.5316 138.528C33.0785 138.815 33.4833 139.211 33.7461 139.716C34.0089 140.22 34.1403 140.793 34.1403 141.436C34.1403 142.079 34.0089 142.649 33.7461 143.146C33.4833 143.643 33.0803 144.034 32.5369 144.318C31.9936 144.598 31.2994 144.739 30.4542 144.739H27.4712V143.545H30.4116C30.994 143.545 31.4627 143.46 31.8178 143.29C32.1765 143.119 32.4357 142.878 32.5955 142.565C32.7589 142.249 32.8406 141.873 32.8406 141.436C32.8406 140.999 32.7589 140.618 32.5955 140.291C32.4322 139.964 32.1712 139.712 31.8125 139.534C31.4538 139.353 30.9798 139.263 30.3903 139.263H28.0678V149H26.7468ZM31.8817 144.099L34.5664 149H33.0323L30.3903 144.099H31.8817ZM37.6626 138.091V149H36.3415V138.091H37.6626ZM47.7686 141.5C47.6515 141.141 47.497 140.82 47.3052 140.536C47.117 140.248 46.8915 140.003 46.6287 139.801C46.3695 139.598 46.0748 139.444 45.7445 139.337C45.4142 139.231 45.052 139.178 44.6578 139.178C44.0115 139.178 43.4238 139.344 42.8947 139.678C42.3656 140.012 41.9448 140.504 41.6323 141.154C41.3198 141.804 41.1635 142.601 41.1635 143.545C41.1635 144.49 41.3216 145.287 41.6376 145.937C41.9537 146.587 42.3816 147.079 42.9213 147.413C43.4611 147.746 44.0684 147.913 44.7431 147.913C45.3681 147.913 45.9185 147.78 46.3944 147.514C46.8738 147.244 47.2466 146.864 47.513 146.374C47.7828 145.88 47.9178 145.3 47.9178 144.632L48.3226 144.717H45.0414V143.545H49.1962V144.717C49.1962 145.616 49.0044 146.397 48.6209 147.061C48.2409 147.725 47.7154 148.24 47.0442 148.606C46.3766 148.968 45.6096 149.149 44.7431 149.149C43.7772 149.149 42.9284 148.922 42.1969 148.467C41.4689 148.013 40.9007 147.366 40.4924 146.528C40.0875 145.69 39.8851 144.696 39.8851 143.545C39.8851 142.683 40.0005 141.907 40.2314 141.218C40.4657 140.525 40.796 139.936 41.2221 139.449C41.6483 138.963 42.1525 138.59 42.7349 138.331C43.3173 138.071 43.9583 137.942 44.6578 137.942C45.2331 137.942 45.7694 138.029 46.2665 138.203C46.7672 138.373 47.2129 138.616 47.6035 138.933C47.9977 139.245 48.3262 139.62 48.589 140.056C48.8517 140.49 49.0328 140.971 49.1323 141.5H47.7686ZM52.7797 138.091V149H51.4587V138.091H52.7797ZM64.079 138.091V149H62.8006L56.856 140.435H56.7495V149H55.4284V138.091H56.7069L62.6728 146.678H62.7793V138.091H64.079ZM67.1698 149H65.7849L69.7906 138.091H71.1542L75.1599 149H73.7749L70.515 139.817H70.4298L67.1698 149ZM67.6812 144.739H73.2636V145.911H67.6812V144.739ZM76.8591 149V138.091H78.1801V147.828H83.2512V149H76.8591Z" fill="white"/>
<path fill-rule="evenodd" clip-rule="evenodd" d="M90 84C93.3137 84 96 81.3137 96 78C96 74.6863 93.3137 72 90 72C86.6863 72 84 74.6863 84 78C84 81.3137 86.6863 84 90 84ZM90 83C92.7614 83 95 80.7614 95 78C95 75.2386 92.7614 73 90 73C87.2386 73 85 75.2386 85 78C85 80.7614 87.2386 83 90 83Z" fill="white"/>
<rect x="85.7943" y="81.5057" width="10.6311" height="1" transform="rotate(-45 85.7943 81.5057)" fill="white"/>
<rect x="86.7071" y="74" width="10.6311" height="1" transform="rotate(45 86.7071 74)" fill="white"/>
</svg>
